# xmcd
#
# Track frame offsets: 
#        150
#        21945
#        37570
#        55880
#        75130
#        92285
#        107905
#        126250
#        144205
#        156175
#        170745
#
# Disc length: 2448 seconds
#
# Revision: 0
# Processed by: cddbd v1.5.1PL0 Copyright (c) Steve Scherf et al.
# Submitted via: ExactAudioCopy v0.90b4
#
DISCID=79098e0b
DTITLE=Deep Dark Black - DB Harris
DYEAR=1998
DGENRE=Country
TTITLE0=Shiny Suits
TTITLE1=Fan
TTITLE2=Halogen
TTITLE3=Two Weeks In December
TTITLE4=Severed and Proud
TTITLE5=Dear
TTITLE6=Verdict
TTITLE7=Under The Shade Tree
TTITLE8=Deep Dark Black
TTITLE9=Scarlett Red
TTITLE10=Fallen House
EXTD=
EXTT0=
EXTT1=
EXTT2=
EXTT3=
EXTT4=
EXTT5=
EXTT6=
EXTT7=
EXTT8=
EXTT9=
EXTT10=
PLAYORDER=
